<svg xmlns="http://www.w3.org/2000/svg" width="32" height="28" viewBox="0 0 32 28">
    <path fill="#C8C8C8" fill-rule="evenodd" d="M11.656 9.02v.03c0 1.863 1.427 3.374 3.188 3.374 1.76 0 3.188-1.511 3.188-3.375V9.02h12.36c.888 0 1.608.756 1.608 1.688 0 .931-.72 1.687-1.608 1.687l-.996-.001-5.972 14.624H8.417L2.443 12.394h-.835C.72 12.395 0 11.64 0 10.709 0 9.776.72 9.02 1.608 9.02l10.048-.001zm-.686 5.592h-.44a.998.998 0 0 0-.998.998v7.034c0 .552.446.999.998.999h.44a.998.998 0 0 0 .999-.999V15.61a.998.998 0 0 0-.999-.998zm5.22 0h-.473a.998.998 0 0 0-.998.998v7.034c0 .552.446.999.998.999h.472a1 1 0 0 0 1-.999V15.61a.999.999 0 0 0-1-.998zm5.155 0h-.472a.999.999 0 0 0-.999.998v7.034c0 .552.448.999.999.999h.472a1 1 0 0 0 1-.999V15.61a.999.999 0 0 0-1-.998zM19.528.206c.66.423.886 1.36.505 2.094l-3.675 7.08c-.38.733-1.223.984-1.882.561-.66-.423-.886-1.361-.506-2.094l3.676-7.08c.381-.734 1.223-.985 1.882-.561z"/>
</svg>
